<svg width="185" height="187" viewBox="0 0 185 187" fill="none" xmlns="http://www.w3.org/2000/svg">
<g opacity="0.1">
<circle cx="43.7569" cy="2.65694" r="2.65694" transform="rotate(90 43.7569 2.65694)" fill="#595959"/>
<circle cx="140.564" cy="2.65694" r="2.65694" transform="rotate(90 140.564 2.65694)" fill="#595959"/>
<circle cx="43.7569" cy="114.068" r="2.65694" transform="rotate(90 43.7569 114.068)" fill="#595959"/>
<circle cx="140.564" cy="114.068" r="2.65694" transform="rotate(90 140.564 114.068)" fill="#595959"/>
<circle cx="43.7569" cy="58.362" r="2.65694" transform="rotate(90 43.7569 58.362)" fill="#595959"/>
<circle cx="140.564" cy="58.362" r="2.65694" transform="rotate(90 140.564 58.362)" fill="#595959"/>
<circle cx="43.7569" cy="169.773" r="2.65694" transform="rotate(90 43.7569 169.773)" fill="#595959"/>
<circle cx="140.564" cy="169.773" r="2.65694" transform="rotate(90 140.564 169.773)" fill="#595959"/>
<circle cx="43.7569" cy="30.5095" r="2.65694" transform="rotate(90 43.7569 30.5095)" fill="#595959"/>
<circle cx="140.564" cy="30.5095" r="2.65694" transform="rotate(90 140.564 30.5095)" fill="#595959"/>
<circle cx="43.7569" cy="141.921" r="2.65694" transform="rotate(90 43.7569 141.921)" fill="#595959"/>
<circle cx="140.564" cy="141.921" r="2.65694" transform="rotate(90 140.564 141.921)" fill="#595959"/>
<circle cx="43.7569" cy="86.2159" r="2.65694" transform="rotate(90 43.7569 86.2159)" fill="#595959"/>
<circle cx="140.564" cy="86.2159" r="2.65694" transform="rotate(90 140.564 86.2159)" fill="#595959"/>
<circle cx="71.6124" cy="2.65694" r="2.65694" transform="rotate(90 71.6124 2.65694)" fill="#595959"/>
<circle cx="168.417" cy="2.65694" r="2.65694" transform="rotate(90 168.417 2.65694)" fill="#595959"/>
<circle cx="71.6124" cy="114.068" r="2.65694" transform="rotate(90 71.6124 114.068)" fill="#595959"/>
<circle cx="168.417" cy="114.068" r="2.65694" transform="rotate(90 168.417 114.068)" fill="#595959"/>
<circle cx="71.6124" cy="58.362" r="2.65694" transform="rotate(90 71.6124 58.362)" fill="#595959"/>
<circle cx="168.417" cy="58.362" r="2.65694" transform="rotate(90 168.417 58.362)" fill="#595959"/>
<circle cx="71.6124" cy="169.773" r="2.65694" transform="rotate(90 71.6124 169.773)" fill="#595959"/>
<circle cx="168.417" cy="169.773" r="2.65694" transform="rotate(90 168.417 169.773)" fill="#595959"/>
<circle cx="71.6124" cy="30.5095" r="2.65694" transform="rotate(90 71.6124 30.5095)" fill="#595959"/>
<circle cx="168.417" cy="30.5095" r="2.65694" transform="rotate(90 168.417 30.5095)" fill="#595959"/>
<circle cx="71.6124" cy="141.921" r="2.65694" transform="rotate(90 71.6124 141.921)" fill="#595959"/>
<circle cx="168.417" cy="141.921" r="2.65694" transform="rotate(90 168.417 141.921)" fill="#595959"/>
<circle cx="71.6124" cy="86.2159" r="2.65694" transform="rotate(90 71.6124 86.2159)" fill="#595959"/>
<circle cx="168.417" cy="86.2159" r="2.65694" transform="rotate(90 168.417 86.2159)" fill="#595959"/>
<circle cx="16.584" cy="2.65694" r="2.65694" transform="rotate(90 16.584 2.65694)" fill="#595959"/>
<circle cx="113.39" cy="2.65694" r="2.65694" transform="rotate(90 113.39 2.65694)" fill="#595959"/>
<circle cx="16.584" cy="114.068" r="2.65694" transform="rotate(90 16.584 114.068)" fill="#595959"/>
<circle cx="113.39" cy="114.068" r="2.65694" transform="rotate(90 113.39 114.068)" fill="#595959"/>
<circle cx="16.584" cy="58.362" r="2.65694" transform="rotate(90 16.584 58.362)" fill="#595959"/>
<circle cx="113.39" cy="58.362" r="2.65694" transform="rotate(90 113.39 58.362)" fill="#595959"/>
<circle cx="16.584" cy="169.773" r="2.65694" transform="rotate(90 16.584 169.773)" fill="#595959"/>
<circle cx="113.39" cy="169.773" r="2.65694" transform="rotate(90 113.39 169.773)" fill="#595959"/>
<circle cx="16.584" cy="30.5095" r="2.65694" transform="rotate(90 16.584 30.5095)" fill="#595959"/>
<circle cx="113.39" cy="30.5095" r="2.65694" transform="rotate(90 113.39 30.5095)" fill="#595959"/>
<circle cx="16.584" cy="141.921" r="2.65694" transform="rotate(90 16.584 141.921)" fill="#595959"/>
<circle cx="113.39" cy="141.921" r="2.65694" transform="rotate(90 113.39 141.921)" fill="#595959"/>
<circle cx="16.584" cy="86.2159" r="2.65694" transform="rotate(90 16.584 86.2159)" fill="#595959"/>
<circle cx="113.39" cy="86.2159" r="2.65694" transform="rotate(90 113.39 86.2159)" fill="#595959"/>
<circle cx="85.5369" cy="2.65694" r="2.65694" transform="rotate(90 85.5369 2.65694)" fill="#595959"/>
<circle cx="182.343" cy="2.65694" r="2.65694" transform="rotate(90 182.343 2.65694)" fill="#595959"/>
<circle cx="85.5369" cy="114.068" r="2.65694" transform="rotate(90 85.5369 114.068)" fill="#595959"/>
<circle cx="182.343" cy="114.068" r="2.65694" transform="rotate(90 182.343 114.068)" fill="#595959"/>
<circle cx="85.5369" cy="58.362" r="2.65694" transform="rotate(90 85.5369 58.362)" fill="#595959"/>
<circle cx="182.343" cy="58.362" r="2.65694" transform="rotate(90 182.343 58.362)" fill="#595959"/>
<circle cx="85.5369" cy="169.773" r="2.65694" transform="rotate(90 85.5369 169.773)" fill="#595959"/>
<circle cx="182.343" cy="169.773" r="2.65694" transform="rotate(90 182.343 169.773)" fill="#595959"/>
<circle cx="85.5369" cy="30.5095" r="2.65694" transform="rotate(90 85.5369 30.5095)" fill="#595959"/>
<circle cx="182.343" cy="30.5095" r="2.65694" transform="rotate(90 182.343 30.5095)" fill="#595959"/>
<circle cx="85.5369" cy="141.921" r="2.65694" transform="rotate(90 85.5369 141.921)" fill="#595959"/>
<circle cx="182.343" cy="141.921" r="2.65694" transform="rotate(90 182.343 141.921)" fill="#595959"/>
<circle cx="85.5369" cy="86.2159" r="2.65694" transform="rotate(90 85.5369 86.2159)" fill="#595959"/>
<circle cx="182.343" cy="86.2159" r="2.65694" transform="rotate(90 182.343 86.2159)" fill="#595959"/>
<circle cx="29.8323" cy="2.65694" r="2.65694" transform="rotate(90 29.8323 2.65694)" fill="#595959"/>
<circle cx="126.637" cy="2.65694" r="2.65694" transform="rotate(90 126.637 2.65694)" fill="#595959"/>
<circle cx="29.8323" cy="114.068" r="2.65694" transform="rotate(90 29.8323 114.068)" fill="#595959"/>
<circle cx="126.637" cy="114.068" r="2.65694" transform="rotate(90 126.637 114.068)" fill="#595959"/>
<circle cx="29.8323" cy="58.362" r="2.65694" transform="rotate(90 29.8323 58.362)" fill="#595959"/>
<circle cx="126.637" cy="58.362" r="2.65694" transform="rotate(90 126.637 58.362)" fill="#595959"/>
<circle cx="29.8323" cy="169.773" r="2.65694" transform="rotate(90 29.8323 169.773)" fill="#595959"/>
<circle cx="126.637" cy="169.773" r="2.65694" transform="rotate(90 126.637 169.773)" fill="#595959"/>
<circle cx="29.8323" cy="30.5095" r="2.65694" transform="rotate(90 29.8323 30.5095)" fill="#595959"/>
<circle cx="126.637" cy="30.5095" r="2.65694" transform="rotate(90 126.637 30.5095)" fill="#595959"/>
<circle cx="29.8323" cy="141.921" r="2.65694" transform="rotate(90 29.8323 141.921)" fill="#595959"/>
<circle cx="126.637" cy="141.921" r="2.65694" transform="rotate(90 126.637 141.921)" fill="#595959"/>
<circle cx="29.8323" cy="86.2159" r="2.65694" transform="rotate(90 29.8323 86.2159)" fill="#595959"/>
<circle cx="126.637" cy="86.2159" r="2.65694" transform="rotate(90 126.637 86.2159)" fill="#595959"/>
<circle cx="57.6853" cy="2.65694" r="2.65694" transform="rotate(90 57.6853 2.65694)" fill="#595959"/>
<circle cx="154.49" cy="2.65694" r="2.65694" transform="rotate(90 154.49 2.65694)" fill="#595959"/>
<circle cx="57.6853" cy="114.068" r="2.65694" transform="rotate(90 57.6853 114.068)" fill="#595959"/>
<circle cx="154.49" cy="114.068" r="2.65694" transform="rotate(90 154.49 114.068)" fill="#595959"/>
<circle cx="57.6853" cy="58.362" r="2.65694" transform="rotate(90 57.6853 58.362)" fill="#595959"/>
<circle cx="154.49" cy="58.362" r="2.65694" transform="rotate(90 154.49 58.362)" fill="#595959"/>
<circle cx="57.6853" cy="169.773" r="2.65694" transform="rotate(90 57.6853 169.773)" fill="#595959"/>
<circle cx="154.49" cy="169.773" r="2.65694" transform="rotate(90 154.49 169.773)" fill="#595959"/>
<circle cx="57.6853" cy="30.5095" r="2.65694" transform="rotate(90 57.6853 30.5095)" fill="#595959"/>
<circle cx="154.49" cy="30.5095" r="2.65694" transform="rotate(90 154.49 30.5095)" fill="#595959"/>
<circle cx="57.6853" cy="141.921" r="2.65694" transform="rotate(90 57.6853 141.921)" fill="#595959"/>
<circle cx="154.49" cy="141.921" r="2.65694" transform="rotate(90 154.49 141.921)" fill="#595959"/>
<circle cx="57.6853" cy="86.2159" r="2.65694" transform="rotate(90 57.6853 86.2159)" fill="#595959"/>
<circle cx="154.49" cy="86.2159" r="2.65694" transform="rotate(90 154.49 86.2159)" fill="#595959"/>
<circle cx="2.65703" cy="2.65694" r="2.65694" transform="rotate(90 2.65703 2.65694)" fill="#595959"/>
<circle cx="99.4639" cy="2.65694" r="2.65694" transform="rotate(90 99.4639 2.65694)" fill="#595959"/>
<circle cx="2.65703" cy="114.068" r="2.65694" transform="rotate(90 2.65703 114.068)" fill="#595959"/>
<circle cx="99.4639" cy="114.068" r="2.65694" transform="rotate(90 99.4639 114.068)" fill="#595959"/>
<circle cx="2.65703" cy="58.362" r="2.65694" transform="rotate(90 2.65703 58.362)" fill="#595959"/>
<circle cx="99.4639" cy="58.362" r="2.65694" transform="rotate(90 99.4639 58.362)" fill="#595959"/>
<circle cx="2.65703" cy="169.773" r="2.65694" transform="rotate(90 2.65703 169.773)" fill="#595959"/>
<circle cx="99.4639" cy="169.773" r="2.65694" transform="rotate(90 99.4639 169.773)" fill="#595959"/>
<circle cx="2.65703" cy="30.5095" r="2.65694" transform="rotate(90 2.65703 30.5095)" fill="#595959"/>
<circle cx="99.4639" cy="30.5095" r="2.65694" transform="rotate(90 99.4639 30.5095)" fill="#595959"/>
<circle cx="2.65703" cy="141.921" r="2.65694" transform="rotate(90 2.65703 141.921)" fill="#595959"/>
<circle cx="99.4639" cy="141.921" r="2.65694" transform="rotate(90 99.4639 141.921)" fill="#595959"/>
<circle cx="2.65703" cy="86.2159" r="2.65694" transform="rotate(90 2.65703 86.2159)" fill="#595959"/>
<circle cx="99.4639" cy="86.2159" r="2.65694" transform="rotate(90 99.4639 86.2159)" fill="#595959"/>
<circle cx="43.7569" cy="16.5834" r="2.65694" transform="rotate(90 43.7569 16.5834)" fill="#595959"/>
<circle cx="140.564" cy="16.5834" r="2.65694" transform="rotate(90 140.564 16.5834)" fill="#595959"/>
<circle cx="43.7569" cy="127.995" r="2.65694" transform="rotate(90 43.7569 127.995)" fill="#595959"/>
<circle cx="140.564" cy="127.995" r="2.65694" transform="rotate(90 140.564 127.995)" fill="#595959"/>
<circle cx="43.7569" cy="72.2881" r="2.65694" transform="rotate(90 43.7569 72.2881)" fill="#595959"/>
<circle cx="140.564" cy="72.2881" r="2.65694" transform="rotate(90 140.564 72.2881)" fill="#595959"/>
<circle cx="43.7569" cy="183.699" r="2.65694" transform="rotate(90 43.7569 183.699)" fill="#595959"/>
<circle cx="140.564" cy="183.699" r="2.65694" transform="rotate(90 140.564 183.699)" fill="#595959"/>
<circle cx="43.7569" cy="44.4359" r="2.65694" transform="rotate(90 43.7569 44.4359)" fill="#595959"/>
<circle cx="140.564" cy="44.4359" r="2.65694" transform="rotate(90 140.564 44.4359)" fill="#595959"/>
<circle cx="43.7569" cy="155.847" r="2.65694" transform="rotate(90 43.7569 155.847)" fill="#595959"/>
<circle cx="140.564" cy="155.847" r="2.65694" transform="rotate(90 140.564 155.847)" fill="#595959"/>
<circle cx="43.7569" cy="100.141" r="2.65694" transform="rotate(90 43.7569 100.141)" fill="#595959"/>
<circle cx="140.564" cy="100.141" r="2.65694" transform="rotate(90 140.564 100.141)" fill="#595959"/>
<circle cx="71.6124" cy="16.5834" r="2.65694" transform="rotate(90 71.6124 16.5834)" fill="#595959"/>
<circle cx="168.417" cy="16.5834" r="2.65694" transform="rotate(90 168.417 16.5834)" fill="#595959"/>
<circle cx="71.6124" cy="127.995" r="2.65694" transform="rotate(90 71.6124 127.995)" fill="#595959"/>
<circle cx="168.417" cy="127.995" r="2.65694" transform="rotate(90 168.417 127.995)" fill="#595959"/>
<circle cx="71.6124" cy="72.2881" r="2.65694" transform="rotate(90 71.6124 72.2881)" fill="#595959"/>
<circle cx="168.417" cy="72.2881" r="2.65694" transform="rotate(90 168.417 72.2881)" fill="#595959"/>
<circle cx="71.6124" cy="183.699" r="2.65694" transform="rotate(90 71.6124 183.699)" fill="#595959"/>
<circle cx="168.417" cy="183.699" r="2.65694" transform="rotate(90 168.417 183.699)" fill="#595959"/>
<circle cx="71.6124" cy="44.4359" r="2.65694" transform="rotate(90 71.6124 44.4359)" fill="#595959"/>
<circle cx="168.417" cy="44.4359" r="2.65694" transform="rotate(90 168.417 44.4359)" fill="#595959"/>
<circle cx="71.6124" cy="155.847" r="2.65694" transform="rotate(90 71.6124 155.847)" fill="#595959"/>
<circle cx="168.417" cy="155.847" r="2.65694" transform="rotate(90 168.417 155.847)" fill="#595959"/>
<circle cx="71.6124" cy="100.141" r="2.65694" transform="rotate(90 71.6124 100.141)" fill="#595959"/>
<circle cx="168.417" cy="100.141" r="2.65694" transform="rotate(90 168.417 100.141)" fill="#595959"/>
<circle cx="16.584" cy="16.5834" r="2.65694" transform="rotate(90 16.584 16.5834)" fill="#595959"/>
<circle cx="113.39" cy="16.5834" r="2.65694" transform="rotate(90 113.39 16.5834)" fill="#595959"/>
<circle cx="16.584" cy="127.995" r="2.65694" transform="rotate(90 16.584 127.995)" fill="#595959"/>
<circle cx="113.39" cy="127.995" r="2.65694" transform="rotate(90 113.39 127.995)" fill="#595959"/>
<circle cx="16.584" cy="72.2881" r="2.65694" transform="rotate(90 16.584 72.2881)" fill="#595959"/>
<circle cx="113.39" cy="72.2881" r="2.65694" transform="rotate(90 113.39 72.2881)" fill="#595959"/>
<circle cx="16.584" cy="183.699" r="2.65694" transform="rotate(90 16.584 183.699)" fill="#595959"/>
<circle cx="113.39" cy="183.699" r="2.65694" transform="rotate(90 113.39 183.699)" fill="#595959"/>
<circle cx="16.584" cy="44.4359" r="2.65694" transform="rotate(90 16.584 44.4359)" fill="#595959"/>
<circle cx="113.39" cy="44.4359" r="2.65694" transform="rotate(90 113.39 44.4359)" fill="#595959"/>
<circle cx="16.584" cy="155.847" r="2.65694" transform="rotate(90 16.584 155.847)" fill="#595959"/>
<circle cx="113.39" cy="155.847" r="2.65694" transform="rotate(90 113.39 155.847)" fill="#595959"/>
<circle cx="16.584" cy="100.141" r="2.65694" transform="rotate(90 16.584 100.141)" fill="#595959"/>
<circle cx="113.39" cy="100.141" r="2.65694" transform="rotate(90 113.39 100.141)" fill="#595959"/>
<circle cx="85.5369" cy="16.5834" r="2.65694" transform="rotate(90 85.5369 16.5834)" fill="#595959"/>
<circle cx="182.343" cy="16.5834" r="2.65694" transform="rotate(90 182.343 16.5834)" fill="#595959"/>
<circle cx="85.5369" cy="127.995" r="2.65694" transform="rotate(90 85.5369 127.995)" fill="#595959"/>
<circle cx="182.343" cy="127.995" r="2.65694" transform="rotate(90 182.343 127.995)" fill="#595959"/>
<circle cx="85.5369" cy="72.2881" r="2.65694" transform="rotate(90 85.5369 72.2881)" fill="#595959"/>
<circle cx="182.343" cy="72.2881" r="2.65694" transform="rotate(90 182.343 72.2881)" fill="#595959"/>
<circle cx="85.5369" cy="183.699" r="2.65694" transform="rotate(90 85.5369 183.699)" fill="#595959"/>
<circle cx="182.343" cy="183.699" r="2.65694" transform="rotate(90 182.343 183.699)" fill="#595959"/>
<circle cx="85.5369" cy="44.4359" r="2.65694" transform="rotate(90 85.5369 44.4359)" fill="#595959"/>
<circle cx="182.343" cy="44.4359" r="2.65694" transform="rotate(90 182.343 44.4359)" fill="#595959"/>
<circle cx="85.5369" cy="155.847" r="2.65694" transform="rotate(90 85.5369 155.847)" fill="#595959"/>
<circle cx="182.343" cy="155.847" r="2.65694" transform="rotate(90 182.343 155.847)" fill="#595959"/>
<circle cx="85.5369" cy="100.141" r="2.65694" transform="rotate(90 85.5369 100.141)" fill="#595959"/>
<circle cx="182.343" cy="100.141" r="2.65694" transform="rotate(90 182.343 100.141)" fill="#595959"/>
<circle cx="29.8323" cy="16.5834" r="2.65694" transform="rotate(90 29.8323 16.5834)" fill="#595959"/>
<circle cx="126.637" cy="16.5834" r="2.65694" transform="rotate(90 126.637 16.5834)" fill="#595959"/>
<circle cx="29.8323" cy="127.995" r="2.65694" transform="rotate(90 29.8323 127.995)" fill="#595959"/>
<circle cx="126.637" cy="127.995" r="2.65694" transform="rotate(90 126.637 127.995)" fill="#595959"/>
<circle cx="29.8323" cy="72.2881" r="2.65694" transform="rotate(90 29.8323 72.2881)" fill="#595959"/>
<circle cx="126.637" cy="72.2881" r="2.65694" transform="rotate(90 126.637 72.2881)" fill="#595959"/>
<circle cx="29.8323" cy="183.699" r="2.65694" transform="rotate(90 29.8323 183.699)" fill="#595959"/>
<circle cx="126.637" cy="183.699" r="2.65694" transform="rotate(90 126.637 183.699)" fill="#595959"/>
<circle cx="29.8323" cy="44.4359" r="2.65694" transform="rotate(90 29.8323 44.4359)" fill="#595959"/>
<circle cx="126.637" cy="44.4359" r="2.65694" transform="rotate(90 126.637 44.4359)" fill="#595959"/>
<circle cx="29.8323" cy="155.847" r="2.65694" transform="rotate(90 29.8323 155.847)" fill="#595959"/>
<circle cx="126.637" cy="155.847" r="2.65694" transform="rotate(90 126.637 155.847)" fill="#595959"/>
<circle cx="29.8323" cy="100.141" r="2.65694" transform="rotate(90 29.8323 100.141)" fill="#595959"/>
<circle cx="126.637" cy="100.141" r="2.65694" transform="rotate(90 126.637 100.141)" fill="#595959"/>
<circle cx="57.6853" cy="16.5834" r="2.65694" transform="rotate(90 57.6853 16.5834)" fill="#595959"/>
<circle cx="154.49" cy="16.5834" r="2.65694" transform="rotate(90 154.49 16.5834)" fill="#595959"/>
<circle cx="57.6853" cy="127.995" r="2.65694" transform="rotate(90 57.6853 127.995)" fill="#595959"/>
<circle cx="154.49" cy="127.995" r="2.65694" transform="rotate(90 154.49 127.995)" fill="#595959"/>
<circle cx="57.6853" cy="72.2881" r="2.65694" transform="rotate(90 57.6853 72.2881)" fill="#595959"/>
<circle cx="154.49" cy="72.2881" r="2.65694" transform="rotate(90 154.49 72.2881)" fill="#595959"/>
<circle cx="57.6853" cy="183.699" r="2.65694" transform="rotate(90 57.6853 183.699)" fill="#595959"/>
<circle cx="154.49" cy="183.699" r="2.65694" transform="rotate(90 154.49 183.699)" fill="#595959"/>
<circle cx="57.6853" cy="44.4359" r="2.65694" transform="rotate(90 57.6853 44.4359)" fill="#595959"/>
<circle cx="154.49" cy="44.4359" r="2.65694" transform="rotate(90 154.49 44.4359)" fill="#595959"/>
<circle cx="57.6853" cy="155.847" r="2.65694" transform="rotate(90 57.6853 155.847)" fill="#595959"/>
<circle cx="154.49" cy="155.847" r="2.65694" transform="rotate(90 154.49 155.847)" fill="#595959"/>
<circle cx="57.6853" cy="100.141" r="2.65694" transform="rotate(90 57.6853 100.141)" fill="#595959"/>
<circle cx="154.49" cy="100.141" r="2.65694" transform="rotate(90 154.49 100.141)" fill="#595959"/>
<circle cx="2.65703" cy="16.5834" r="2.65694" transform="rotate(90 2.65703 16.5834)" fill="#595959"/>
<circle cx="99.4639" cy="16.5834" r="2.65694" transform="rotate(90 99.4639 16.5834)" fill="#595959"/>
<circle cx="2.65703" cy="127.995" r="2.65694" transform="rotate(90 2.65703 127.995)" fill="#595959"/>
<circle cx="99.4639" cy="127.995" r="2.65694" transform="rotate(90 99.4639 127.995)" fill="#595959"/>
<circle cx="2.65703" cy="72.2881" r="2.65694" transform="rotate(90 2.65703 72.2881)" fill="#595959"/>
<circle cx="99.4639" cy="72.2881" r="2.65694" transform="rotate(90 99.4639 72.2881)" fill="#595959"/>
<circle cx="2.65703" cy="183.699" r="2.65694" transform="rotate(90 2.65703 183.699)" fill="#595959"/>
<circle cx="99.4639" cy="183.699" r="2.65694" transform="rotate(90 99.4639 183.699)" fill="#595959"/>
<circle cx="2.65703" cy="44.4359" r="2.65694" transform="rotate(90 2.65703 44.4359)" fill="#595959"/>
<circle cx="99.4639" cy="44.4359" r="2.65694" transform="rotate(90 99.4639 44.4359)" fill="#595959"/>
<circle cx="2.65703" cy="155.847" r="2.65694" transform="rotate(90 2.65703 155.847)" fill="#595959"/>
<circle cx="99.4639" cy="155.847" r="2.65694" transform="rotate(90 99.4639 155.847)" fill="#595959"/>
<circle cx="2.65703" cy="100.141" r="2.65694" transform="rotate(90 2.65703 100.141)" fill="#595959"/>
<circle cx="99.4639" cy="100.141" r="2.65694" transform="rotate(90 99.4639 100.141)" fill="#595959"/>
</g>
</svg>
