<svg width="94" height="583" viewBox="0 0 94 583" fill="none" xmlns="http://www.w3.org/2000/svg">
<path d="M56.9122 214.702L3.37158 193.124L3.37158 178.02L75.6582 207.15L94.4041 214.702L75.6582 222.255L3.37158 251.25L3.37158 236.146L56.9122 214.702Z" fill="#EEEEEE"/>
<path d="M28.5908 139.719C28.5908 121.513 43.2909 106.813 61.4974 106.813C63.9249 106.813 66.2176 107.082 68.5103 107.622V157.117C75.3883 154.419 80.2434 147.676 80.2434 139.719C80.2434 134.594 78.2204 129.874 74.8488 126.368L84.8287 116.523C90.7627 122.457 94.404 130.683 94.404 139.719C94.404 155.498 83.3452 168.58 68.5103 171.817C66.2176 172.356 63.9249 172.626 61.4974 172.626C43.2909 172.626 28.5908 157.926 28.5908 139.719ZM54.6194 157.251V122.187C47.6065 125.019 42.7514 131.762 42.7514 139.719C42.7514 147.676 47.6065 154.419 54.6194 157.251Z" fill="#EEEEEE"/>
<path d="M34.2553 87.2575C30.4791 81.863 28.3213 75.3895 28.3213 68.3767C28.3213 59.206 31.9626 50.9793 38.0314 45.0453L48.0113 55.0252C44.6397 58.3968 42.4819 63.117 42.4819 68.3767C42.4819 78.7611 50.9783 87.2575 61.3627 87.2575H94.4042V101.418H28.3213V87.2575H34.2553Z" fill="#EEEEEE"/>
<path d="M0 11.7333H28.1864V0.000179291H42.347L42.347 11.7333L94.4041 11.7333V25.8939L42.347 25.8939V39.6499H28.1864V25.8939H0L0 11.7333Z" fill="#EEEEEE"/>
<path d="M42.8864 536.472C48.1461 529.729 56.3727 525.413 65.5434 525.413C81.4573 525.413 94.4041 538.225 94.4041 554.139V583H3.37158L3.37158 554.139C3.37158 541.058 14.0258 530.538 27.1075 530.538C33.1763 530.538 38.7057 532.696 42.8864 536.472ZM17.3973 568.974H36.8176V554.139C36.8176 548.88 32.502 544.429 27.1075 544.429C21.713 544.429 17.3973 548.88 17.3973 554.139V568.974ZM80.3784 554.139C80.3784 546.048 73.7701 539.439 65.5434 539.439C57.4517 539.439 50.8434 546.048 50.8434 554.139V568.974H80.3784V554.139Z" fill="#EEEEEE"/>
<path d="M94.4041 520.019H40.4589V505.993H94.4041V520.019ZM17.3973 520.019H3.37158L3.37158 505.993H17.3973V520.019Z" fill="#EEEEEE"/>
<path d="M28.3213 467.558C28.3213 449.351 43.1562 434.516 61.3627 434.516C79.5692 434.516 94.4042 449.351 94.4042 467.558C94.4042 485.764 79.5692 500.599 61.3627 500.599C43.1562 500.599 28.3213 485.764 28.3213 467.558ZM80.2435 467.558C80.2435 457.173 71.7472 448.677 61.3627 448.677C50.9783 448.677 42.4819 457.173 42.4819 467.558C42.4819 477.942 50.9783 486.439 61.3627 486.439C71.7472 486.439 80.2435 477.942 80.2435 467.558Z" fill="#EEEEEE"/>
<path d="M0 414.961L0 429.121H94.4041V414.961H0Z" fill="#EEEEEE"/>
<path d="M94.4041 409.566H40.4589V395.54H94.4041V409.566ZM17.3973 409.566H3.37158L3.37158 395.54H17.3973V409.566Z" fill="#EEEEEE"/>
<path d="M0 362.23H28.1864V350.496H42.347L42.347 362.23H94.4041V376.39H42.347V390.146H28.1864V376.39H0L0 362.23Z" fill="#EEEEEE"/>
<path d="M28.5908 312.195C28.5908 293.988 43.2909 279.288 61.4974 279.288C63.9249 279.288 66.2176 279.558 68.5103 280.098V329.592C75.3883 326.895 80.2434 320.152 80.2434 312.195C80.2434 307.07 78.2204 302.35 74.8488 298.844L84.8287 288.999C90.7627 294.933 94.404 303.159 94.404 312.195C94.404 327.974 83.3452 341.056 68.5103 344.292C66.2176 344.832 63.9249 345.102 61.4974 345.102C43.2909 345.102 28.5908 330.401 28.5908 312.195ZM54.6194 329.727V294.663C47.6065 297.495 42.7514 304.238 42.7514 312.195C42.7514 320.152 47.6065 326.895 54.6194 329.727Z" fill="#EEEEEE"/>
</svg>
