<svg width="130" height="68" viewBox="0 0 130 68" fill="none" xmlns="http://www.w3.org/2000/svg">
<path d="M90.5932 35.2317L94.419 25.739H97.097L91.9322 38.5554L90.5932 41.879L89.2542 38.5554L84.1133 25.739H86.7913L90.5932 35.2317Z" fill="#67CD45"/>
<path d="M103.888 30.2104C107.116 30.2104 109.722 32.8168 109.722 36.0448C109.722 36.4752 109.674 36.8816 109.578 37.2881H100.803C101.281 38.5076 102.477 39.3684 103.888 39.3684C104.796 39.3684 105.633 39.0097 106.255 38.4119L108 40.1814C106.948 41.2335 105.49 41.8791 103.888 41.8791C101.09 41.8791 98.7706 39.9183 98.1967 37.2881C98.101 36.8816 98.0532 36.4752 98.0532 36.0448C98.0532 32.8168 100.66 30.2104 103.888 30.2104ZM100.779 34.8253H106.996C106.494 33.5819 105.298 32.7211 103.888 32.7211C102.477 32.7211 101.281 33.5819 100.779 34.8253Z" fill="#67CD45"/>
<path d="M113.189 31.2147C114.145 30.5452 115.293 30.1626 116.536 30.1626C118.162 30.1626 119.621 30.8082 120.673 31.8842L118.904 33.6536C118.306 33.0558 117.469 32.6733 116.536 32.6733C114.695 32.6733 113.189 34.1797 113.189 36.0208V41.879H110.678V30.1626H113.189V31.2147Z" fill="#67CD45"/>
<path d="M126.579 25.1414V30.1388H128.66V32.6494H126.579V41.8791H124.069V32.6494H121.63V30.1388H124.069V25.1414H126.579Z" fill="#67CD45"/>
<path d="M33.5435 32.745C34.7391 33.6775 35.5042 35.1361 35.5042 36.762C35.5042 39.5835 33.2327 41.879 30.4112 41.879H25.2942V25.739H30.4112C32.7305 25.739 34.5956 27.628 34.5956 29.9474C34.5956 31.0234 34.213 32.0037 33.5435 32.745ZM27.7809 28.2258V31.669H30.4112C31.3437 31.669 32.1328 30.9038 32.1328 29.9474C32.1328 28.9909 31.3437 28.2258 30.4112 28.2258H27.7809ZM30.4112 39.3922C31.8458 39.3922 33.0175 38.2206 33.0175 36.762C33.0175 35.3274 31.8458 34.1557 30.4112 34.1557H27.7809V39.3922H30.4112Z" fill="white"/>
<path d="M36.4607 41.879V32.3146H38.9474V41.879H36.4607ZM36.4607 28.2258V25.739H38.9474V28.2258H36.4607Z" fill="white"/>
<path d="M45.762 30.1626C48.99 30.1626 51.6202 32.7928 51.6202 36.0208C51.6202 39.2488 48.99 41.879 45.762 41.879C42.534 41.879 39.9038 39.2488 39.9038 36.0208C39.9038 32.7928 42.534 30.1626 45.762 30.1626ZM45.762 39.3684C47.6032 39.3684 49.1096 37.862 49.1096 36.0208C49.1096 34.1797 47.6032 32.6733 45.762 32.6733C43.9209 32.6733 42.4145 34.1797 42.4145 36.0208C42.4145 37.862 43.9209 39.3684 45.762 39.3684Z" fill="white"/>
<path d="M55.0876 25.1414H52.5769V41.8791H55.0876V25.1414Z" fill="white"/>
<path d="M56.0439 41.879V32.3146H58.5307V41.879H56.0439ZM56.0439 28.2258V25.739H58.5307V28.2258H56.0439Z" fill="white"/>
<path d="M64.4369 25.1414V30.1388H66.5172V32.6494H64.4369V41.8791H61.9262V32.6494H59.4873V30.1388H61.9262V25.1414H64.4369Z" fill="white"/>
<path d="M73.3079 30.2104C76.5359 30.2104 79.1422 32.8168 79.1422 36.0448C79.1422 36.4752 79.0944 36.8816 78.9988 37.2881H70.2234C70.7016 38.5076 71.8972 39.3684 73.3079 39.3684C74.2166 39.3684 75.0534 39.0097 75.6751 38.4119L77.4206 40.1814C76.3686 41.2335 74.91 41.8791 73.3079 41.8791C70.5103 41.8791 68.191 39.9183 67.6171 37.2881C67.5215 36.8816 67.4736 36.4752 67.4736 36.0448C67.4736 32.8168 70.0799 30.2104 73.3079 30.2104ZM70.1995 34.8253H76.4164C75.9142 33.5819 74.7187 32.7211 73.3079 32.7211C71.8972 32.7211 70.7016 33.5819 70.1995 34.8253Z" fill="white"/>
<path fill-rule="evenodd" clip-rule="evenodd" d="M34.9611 48.9066V58.3373C38.3288 58.1199 41.5807 57.2281 44.5405 55.7637L39.8267 47.5993C38.2976 48.2848 36.6568 48.7318 34.9611 48.9066ZM20.4515 42.408L12.2871 47.1214C14.118 49.8699 16.4884 52.2677 19.2964 54.1398L24.0117 45.9729C22.6307 44.9734 21.4328 43.766 20.4515 42.408ZM18.8201 26.5936L10.6535 21.8786C9.93055 23.3453 9.33991 24.9039 8.90047 26.5435C8.46104 28.1835 8.19328 29.8284 8.08618 31.4602L17.5166 31.4605C17.6019 30.6339 17.7538 29.8036 17.9755 28.9754C18.1976 28.1472 18.4818 27.3525 18.8201 26.5936ZM31.7017 17.2735V7.84277C28.3339 8.05981 25.0821 8.95129 22.1226 10.4161L26.8364 18.5805C28.3651 17.8953 30.0063 17.4483 31.7017 17.2735ZM47.3661 12.0399L42.6511 20.2072C44.032 21.2064 45.2297 22.4141 46.211 23.7721L54.3756 19.0583C52.5448 16.3099 50.1744 13.912 47.3661 12.0399Z" fill="#67CD45"/>
<path fill-rule="evenodd" clip-rule="evenodd" d="M39.323 12.0886C39.2616 12.5494 39.1217 13.0534 38.9949 13.6144C38.9276 13.8939 38.8278 14.1764 38.7402 14.4748C38.6933 14.6231 38.6503 14.776 38.5977 14.9282C38.5398 15.0782 38.4812 15.231 38.4217 15.3857C38.3031 15.6963 38.1844 16.0182 38.0274 16.3317C37.8766 16.6483 37.7351 16.9805 37.5475 17.2957C37.473 17.4286 37.3983 17.5639 37.3222 17.6989C38.1107 17.8951 38.9612 17.8414 39.7338 17.5073C48.6601 13.6464 40.4293 1.65676 40.4293 1.65676C40.2967 4.86769 37.2899 7.58575 37.2899 7.58575C33.0663 11.8016 33.9378 14.7563 35.3435 16.4615C35.5839 16.7531 35.8653 16.9977 36.1718 17.1976C36.313 17.0261 36.4489 16.8516 36.5837 16.6784C36.8008 16.4152 36.9758 16.1298 37.1605 15.8569C37.3517 15.5871 37.5069 15.3045 37.6623 15.0296C37.7405 14.8922 37.8178 14.7569 37.8939 14.6233C37.9652 14.4871 38.0272 14.3491 38.0929 14.215C38.2186 13.9449 38.3559 13.6885 38.4603 13.4309C38.6615 12.9134 38.873 12.4431 38.9995 12.006C39.1374 11.5725 39.2747 11.1958 39.3457 10.8754C39.5097 10.2375 39.6037 9.87297 39.6037 9.87297C39.6037 9.87297 39.5655 10.2484 39.4984 10.9052C39.4751 11.2373 39.396 11.6306 39.323 12.0886Z" fill="#67CD45"/>
<path fill-rule="evenodd" clip-rule="evenodd" d="M18.1563 17.4348C18.5367 17.702 18.9191 18.0588 19.3583 18.4302C19.5751 18.619 19.7796 18.8379 20.0039 19.0535C20.1138 19.1635 20.2295 19.2722 20.3402 19.3891C20.4466 19.5098 20.555 19.6323 20.6648 19.7565C20.8856 20.0051 21.1163 20.259 21.3219 20.543C21.5332 20.8229 21.7625 21.1018 21.9555 21.4138C22.0389 21.5412 22.1245 21.6699 22.2091 21.7998C22.7472 21.1909 23.0922 20.4116 23.1526 19.5721C23.8488 9.8716 9.4135 11.6373 9.4135 11.6373C12.2005 13.2373 13.2234 17.1593 13.2234 17.1593C15.0131 22.8523 18.0364 23.4434 20.198 22.9836C20.5677 22.905 20.9145 22.7683 21.2333 22.5888C21.1464 22.3843 21.0544 22.1833 20.9629 21.9837C20.8297 21.6696 20.6573 21.3826 20.5005 21.0928C20.3495 20.7986 20.1705 20.5305 19.9983 20.2657C19.9126 20.1329 19.8282 20.0019 19.7449 19.8727C19.657 19.7465 19.5632 19.6278 19.4745 19.5077C19.293 19.2715 19.1289 19.0313 18.9487 18.8198C18.5825 18.4024 18.263 17.9977 17.9336 17.6836C17.6128 17.3612 17.3421 17.0655 17.0906 16.8546C16.6005 16.4146 16.3205 16.1629 16.3205 16.1629C16.3205 16.1629 16.6359 16.3702 17.1876 16.7328C17.4713 16.9069 17.7837 17.1586 18.1563 17.4348Z" fill="#67CD45"/>
<path fill-rule="evenodd" clip-rule="evenodd" d="M12.1237 38.7177C12.5311 38.4938 13.0198 38.3076 13.5467 38.0769C13.8117 37.9653 14.0983 37.8781 14.3906 37.7717C14.5377 37.7215 14.6863 37.6654 14.8401 37.6176C14.9952 37.5752 15.153 37.5318 15.3128 37.4879C15.6333 37.3992 15.9628 37.3039 16.3083 37.2443C16.6527 37.178 17.0041 37.0949 17.3691 37.059C17.5203 37.0401 17.6736 37.0201 17.8274 37.0013C17.5177 36.25 16.97 35.5971 16.2428 35.1732C7.84022 30.2762 3.06849 44.014 3.06849 44.014C5.73235 42.2163 9.70404 43.0252 9.70404 43.0252C15.6034 43.9254 17.4655 41.4714 18.0046 39.3282C18.0968 38.9617 18.1269 38.5901 18.1061 38.2248C17.8842 38.2128 17.6632 38.2069 17.4437 38.2011C17.103 38.1824 16.7695 38.2108 16.4402 38.2239C16.1096 38.23 15.79 38.2726 15.4765 38.3106C15.3196 38.329 15.1647 38.3471 15.0121 38.365C14.8601 38.3884 14.7122 38.4203 14.5653 38.447C14.2733 38.506 13.9854 38.5475 13.7161 38.6162C13.1801 38.7611 12.676 38.8697 12.249 39.0272C11.8183 39.1732 11.4335 39.286 11.1335 39.419C10.5226 39.6652 10.1733 39.8058 10.1733 39.8058C10.1733 39.8058 10.4983 39.6139 11.0669 39.2783C11.348 39.1002 11.7116 38.9305 12.1237 38.7177Z" fill="#67CD45"/>
<path fill-rule="evenodd" clip-rule="evenodd" d="M27.2595 54.11C27.3553 53.6552 27.5326 53.1631 27.7012 52.6132C27.7892 52.3395 27.91 52.0654 28.0198 51.7743C28.0776 51.63 28.132 51.4807 28.1959 51.333C28.2649 51.1877 28.3348 51.0398 28.4058 50.89C28.5474 50.5891 28.6899 50.277 28.8699 49.9762C29.0441 49.6718 29.2101 49.3511 29.4209 49.051C29.5051 48.9241 29.5898 48.7947 29.6758 48.6658C28.9042 48.411 28.0521 48.4007 27.2566 48.6758C18.0657 51.8558 25.3732 64.4294 25.3732 64.4294C25.7464 61.2375 28.9488 58.7528 28.9488 58.7528C33.477 54.8659 32.8298 51.8541 31.556 50.0482C31.3382 49.7394 31.0759 49.4744 30.7854 49.2521C30.6316 49.4125 30.483 49.5762 30.3356 49.7389C30.0993 49.985 29.9035 50.2565 29.6988 50.5148C29.4879 50.7694 29.3119 51.0396 29.1363 51.3021C29.048 51.4331 28.9607 51.5623 28.8748 51.6898C28.7935 51.8203 28.7213 51.9532 28.6457 52.082C28.5002 52.3419 28.344 52.5873 28.2205 52.8363C27.9811 53.3372 27.7348 53.7903 27.5759 54.2168C27.4058 54.6386 27.2406 55.0039 27.1458 55.3181C26.9344 55.9419 26.8133 56.2984 26.8133 56.2984C26.8133 56.2984 26.8796 55.9268 26.9957 55.2769C27.0439 54.9476 27.1523 54.5613 27.2595 54.11Z" fill="#67CD45"/>
</svg>
