<svg width="158" height="80" viewBox="0 0 158 80" fill="none" xmlns="http://www.w3.org/2000/svg">
<path d="M110.499 42.3622L115.208 30.6788H118.504L112.147 46.4528L110.499 50.5434L108.851 46.4528L102.524 30.6788H105.82L110.499 42.3622Z" fill="#67CD45"/>
<path d="M126.862 36.1821C130.835 36.1821 134.042 39.3899 134.042 43.3628C134.042 43.8925 133.983 44.3928 133.866 44.8931H123.065C123.654 46.394 125.125 47.4534 126.862 47.4534C127.98 47.4534 129.01 47.012 129.775 46.2763L131.923 48.454C130.629 49.7489 128.833 50.5435 126.862 50.5435C123.418 50.5435 120.564 48.1303 119.857 44.8931C119.74 44.3928 119.681 43.8925 119.681 43.3628C119.681 39.3899 122.889 36.1821 126.862 36.1821ZM123.036 41.8619H130.687C130.069 40.3316 128.598 39.2722 126.862 39.2722C125.125 39.2722 123.654 40.3316 123.036 41.8619Z" fill="#67CD45"/>
<path d="M138.309 37.418C139.486 36.594 140.899 36.1232 142.429 36.1232C144.431 36.1232 146.226 36.9178 147.521 38.2421L145.343 40.4198C144.607 39.6841 143.577 39.2132 142.429 39.2132C140.163 39.2132 138.309 41.0672 138.309 43.3333V50.5434H135.219V36.1232H138.309V37.418Z" fill="#67CD45"/>
<path d="M154.79 29.9431V36.0938H157.35V39.1838H154.79V50.5434H151.7V39.1838H148.698V36.0938H151.7V29.9431H154.79Z" fill="#67CD45"/>
<path d="M40.2841 39.3015C41.7556 40.4493 42.6973 42.2444 42.6973 44.2456C42.6973 47.7182 39.9015 50.5434 36.4289 50.5434H30.1311V30.6788H36.4289C39.2835 30.6788 41.579 33.0037 41.579 35.8583C41.579 37.1826 41.1081 38.3892 40.2841 39.3015ZM33.1917 33.7395V37.9772H36.4289C37.5766 37.9772 38.5478 37.0355 38.5478 35.8583C38.5478 34.6812 37.5766 33.7395 36.4289 33.7395H33.1917ZM36.4289 47.4828C38.1947 47.4828 39.6367 46.0408 39.6367 44.2456C39.6367 42.4799 38.1947 41.0378 36.4289 41.0378H33.1917V47.4828H36.4289Z" fill="#343636"/>
<path d="M43.8745 50.5434V38.7718H46.9351V50.5434H43.8745ZM43.8745 33.7395V30.6788H46.9351V33.7395H43.8745Z" fill="#343636"/>
<path d="M55.3219 36.1232C59.2948 36.1232 62.532 39.3604 62.532 43.3333C62.532 47.3062 59.2948 50.5434 55.3219 50.5434C51.349 50.5434 48.1118 47.3062 48.1118 43.3333C48.1118 39.3604 51.349 36.1232 55.3219 36.1232ZM55.3219 47.4533C57.588 47.4533 59.442 45.5993 59.442 43.3333C59.442 41.0672 57.588 39.2132 55.3219 39.2132C53.0559 39.2132 51.2019 41.0672 51.2019 43.3333C51.2019 45.5993 53.0559 47.4533 55.3219 47.4533Z" fill="#343636"/>
<path d="M66.7995 29.9431H63.7095V50.5434H66.7995V29.9431Z" fill="#343636"/>
<path d="M67.9768 50.5434V38.7718H71.0374V50.5434H67.9768ZM67.9768 33.7395V30.6788H71.0374V33.7395H67.9768Z" fill="#343636"/>
<path d="M78.3062 29.9431V36.0938H80.8665V39.1838H78.3062V50.5434H75.2161V39.1838H72.2144V36.0938H75.2161V29.9431H78.3062Z" fill="#343636"/>
<path d="M89.2244 36.1821C93.1973 36.1821 96.4051 39.3899 96.4051 43.3628C96.4051 43.8925 96.3462 44.3928 96.2285 44.8931H85.428C86.0166 46.394 87.4881 47.4534 89.2244 47.4534C90.3427 47.4534 91.3727 47.012 92.1379 46.2763L94.2862 48.454C92.9913 49.7489 91.1961 50.5435 89.2244 50.5435C85.7812 50.5435 82.9266 48.1303 82.2203 44.8931C82.1026 44.3928 82.0437 43.8925 82.0437 43.3628C82.0437 39.3899 85.2515 36.1821 89.2244 36.1821ZM85.3986 41.8619H93.0502C92.4321 40.3316 90.9607 39.2722 89.2244 39.2722C87.4881 39.2722 86.0166 40.3316 85.3986 41.8619Z" fill="#343636"/>
<path fill-rule="evenodd" clip-rule="evenodd" d="M42.0292 59.1924V70.7994C46.1741 70.5319 50.1764 69.4343 53.8192 67.6319L48.0176 57.5834C46.1357 58.4271 44.1162 58.9772 42.0292 59.1924ZM24.1712 51.1941L14.1228 56.9953C16.3761 60.378 19.2936 63.3292 22.7495 65.6333L28.5531 55.5817C26.8534 54.3516 25.3789 52.8655 24.1712 51.1941ZM22.1633 31.7303L12.1122 25.9272C11.2224 27.7323 10.4954 29.6507 9.9546 31.6687C9.41375 33.687 9.08421 35.7116 8.95239 37.7199L20.559 37.7203C20.6641 36.703 20.851 35.681 21.1239 34.6617C21.3972 33.6425 21.747 32.6643 22.1633 31.7303ZM38.0176 20.2594V8.65234C33.8727 8.91947 29.8705 10.0167 26.228 11.8195L32.0296 21.8679C33.9111 21.0247 35.931 20.4745 38.0176 20.2594ZM57.2969 13.8181L51.4938 23.87C53.1935 25.0998 54.6675 26.5863 55.8752 28.2577L65.924 22.4561C63.6707 19.0734 60.7533 16.1222 57.2969 13.8181Z" fill="#67CD45"/>
<path fill-rule="evenodd" clip-rule="evenodd" d="M47.3973 13.8781C47.3218 14.4452 47.1496 15.0654 46.9936 15.756C46.9107 16.0999 46.7879 16.4476 46.68 16.8149C46.6224 16.9974 46.5694 17.1856 46.5047 17.3729C46.4334 17.5576 46.3613 17.7456 46.288 17.936C46.142 18.3183 45.9959 18.7145 45.8028 19.1003C45.6172 19.49 45.443 19.8989 45.2121 20.2868C45.1204 20.4503 45.0284 20.6169 44.9348 20.783C45.9053 21.0245 46.9521 20.9584 47.903 20.5472C58.8891 15.7953 48.7589 1.03886 48.7589 1.03886C48.5957 4.99077 44.8951 8.33608 44.8951 8.33608C39.6967 13.5248 40.7694 17.1614 42.4995 19.2601C42.7954 19.619 43.1417 19.92 43.5189 20.166C43.6928 19.9549 43.86 19.7402 44.0259 19.527C44.2931 19.2031 44.5084 18.8518 44.7358 18.5159C44.9711 18.1839 45.1622 17.8361 45.3534 17.4977C45.4496 17.3287 45.5448 17.1621 45.6384 16.9977C45.7262 16.8301 45.8025 16.6602 45.8834 16.4951C46.038 16.1627 46.207 15.8471 46.3356 15.5301C46.5831 14.8932 46.8435 14.3144 46.9992 13.7763C47.1689 13.2429 47.3379 12.7793 47.4252 12.3849C47.6271 11.5998 47.7428 11.1511 47.7428 11.1511C47.7428 11.1511 47.6957 11.6132 47.6133 12.4216C47.5845 12.8303 47.4872 13.3144 47.3973 13.8781Z" fill="#67CD45"/>
<path fill-rule="evenodd" clip-rule="evenodd" d="M21.3463 20.4578C21.8145 20.7866 22.2851 21.2257 22.8256 21.6829C23.0925 21.9152 23.3442 22.1846 23.6203 22.4499C23.7555 22.5853 23.898 22.7192 24.0342 22.8631C24.1651 23.0115 24.2986 23.1624 24.4337 23.3152C24.7054 23.6212 24.9894 23.9337 25.2425 24.2832C25.5024 24.6278 25.7847 24.971 26.0222 25.3549C26.1249 25.5117 26.2302 25.6702 26.3343 25.83C26.9966 25.0806 27.4212 24.1215 27.4956 23.0883C28.3525 11.1492 10.5859 13.3224 10.5859 13.3224C14.0161 15.2916 15.2751 20.1187 15.2751 20.1187C17.4777 27.1254 21.1987 27.8529 23.8592 27.2871C24.3141 27.1903 24.7411 27.0221 25.1334 26.8011C25.0264 26.5494 24.9131 26.302 24.8006 26.0564C24.6366 25.6698 24.4245 25.3166 24.2315 24.9599C24.0456 24.5979 23.8253 24.2678 23.6134 23.9419C23.5079 23.7785 23.404 23.6172 23.3015 23.4583C23.1933 23.303 23.0779 23.1569 22.9688 23.009C22.7453 22.7183 22.5434 22.4227 22.3215 22.1623C21.8709 21.6486 21.4776 21.1505 21.0722 20.764C20.6774 20.3672 20.3442 20.0032 20.0346 19.7437C19.4315 19.2021 19.0869 18.8924 19.0869 18.8924C19.0869 18.8924 19.475 19.1474 20.154 19.5938C20.5033 19.808 20.8877 20.1178 21.3463 20.4578Z" fill="#67CD45"/>
<path fill-rule="evenodd" clip-rule="evenodd" d="M13.9212 46.6523C14.4226 46.3768 15.0241 46.1476 15.6726 45.8636C15.9987 45.7263 16.3514 45.619 16.7112 45.488C16.8923 45.4262 17.0752 45.3572 17.2644 45.2983C17.4553 45.2461 17.6495 45.1927 17.8463 45.1388C18.2407 45.0296 18.6463 44.9122 19.0715 44.8389C19.4953 44.7572 19.9278 44.655 20.3771 44.6108C20.5631 44.5876 20.7518 44.5629 20.9411 44.5398C20.5599 43.6152 19.8859 42.8116 18.9909 42.2898C8.6492 36.2628 2.77631 53.1708 2.77631 53.1708C6.05491 50.9583 10.9431 51.9538 10.9431 51.9538C18.2039 53.0618 20.4956 50.0415 21.1593 47.4037C21.2727 46.9526 21.3097 46.4953 21.2841 46.0457C21.011 46.0309 20.739 46.0236 20.4689 46.0165C20.0496 45.9935 19.6391 46.0284 19.2338 46.0446C18.8269 46.052 18.4336 46.1045 18.0477 46.1512C17.8545 46.174 17.664 46.1962 17.4761 46.2182C17.289 46.247 17.107 46.2863 16.9262 46.3191C16.5668 46.3918 16.2125 46.4429 15.881 46.5274C15.2214 46.7058 14.601 46.8394 14.0754 47.0332C13.5453 47.2129 13.0717 47.3518 12.7024 47.5154C11.9506 47.8185 11.5207 47.9915 11.5207 47.9915C11.5207 47.9915 11.9207 47.7553 12.6205 47.3423C12.9665 47.123 13.414 46.9143 13.9212 46.6523Z" fill="#67CD45"/>
<path fill-rule="evenodd" clip-rule="evenodd" d="M32.55 65.5968C32.6679 65.037 32.8862 64.4314 33.0936 63.7546C33.202 63.4178 33.3506 63.0803 33.4858 62.7221C33.557 62.5445 33.6239 62.3608 33.7025 62.1789C33.7874 62.0001 33.8735 61.818 33.9608 61.6337C34.1351 61.2634 34.3105 60.8793 34.5321 60.509C34.7465 60.1344 34.9508 59.7397 35.2102 59.3703C35.3139 59.2141 35.4181 59.0549 35.524 58.8963C34.5743 58.5826 33.5255 58.57 32.5465 58.9085C21.2346 62.8223 30.2285 78.2976 30.2285 78.2976C30.6878 74.3691 34.6291 71.311 34.6291 71.311C40.2024 66.5272 39.4058 62.8204 37.838 60.5977C37.5699 60.2176 37.2472 59.8914 36.8896 59.6178C36.7003 59.8152 36.5175 60.0168 36.336 60.2169C36.0452 60.5199 35.8042 60.854 35.5522 61.1719C35.2927 61.4853 35.076 61.8178 34.8599 62.1409C34.7513 62.3022 34.6439 62.4612 34.5381 62.618C34.438 62.7786 34.3492 62.9423 34.2562 63.1008C34.077 63.4207 33.8848 63.7227 33.7328 64.0291C33.4381 64.6457 33.1351 65.2033 32.9394 65.7282C32.7301 66.2474 32.5268 66.697 32.4101 67.0837C32.1499 67.8514 32.0008 68.2902 32.0008 68.2902C32.0008 68.2902 32.0824 67.8329 32.2254 67.033C32.2847 66.6276 32.4181 66.1522 32.55 65.5968Z" fill="#67CD45"/>
</svg>
