<svg width="24" height="24" viewBox="0 0 24 24" fill="none" xmlns="http://www.w3.org/2000/svg">
<path d="M20.9934 7.04997L20.9942 7.05142C21.1556 7.32039 21.2478 7.62512 21.2628 7.93842C21.2777 8.25139 21.2149 8.56318 21.0802 8.84603C21.08 8.84633 21.0799 8.84662 21.0797 8.84692L17.8007 15.405C17.7259 15.5534 17.6115 15.6782 17.4701 15.7656C17.3288 15.8529 17.1661 15.8994 17 15.9C16.9999 15.9 16.9998 15.9 16.9997 15.9L8 15.9V15.8999L7.99658 15.9C7.79339 15.907 7.59383 15.845 7.43041 15.724C7.26698 15.6031 7.14932 15.4304 7.09658 15.234L7.09657 15.234L4.33657 4.974L4.31665 4.89998H4.24H3C2.76131 4.89998 2.53239 4.80515 2.3636 4.63637C2.19482 4.46759 2.1 4.23867 2.1 3.99998C2.1 3.76128 2.19482 3.53236 2.3636 3.36358C2.53239 3.1948 2.76131 3.09998 3 3.09998H5V3.10003L5.00342 3.09992C5.20661 3.09296 5.40617 3.155 5.56959 3.27593C5.73287 3.39676 5.85047 3.56927 5.90328 3.76539C5.90333 3.76557 5.90338 3.76574 5.90342 3.76592L6.48314 6.02483L6.50242 6.09998H6.58H19.3792C19.7072 6.1054 20.0283 6.19568 20.3111 6.36204C20.5942 6.52854 20.8292 6.76555 20.9934 7.04997ZM16.38 14.1H16.4418L16.4694 14.0447L19.4694 8.0447L19.5418 7.89998H19.38H7.13H6.99921L7.0335 8.02619L8.6635 14.0262L8.68354 14.1H8.76H16.38Z" fill="#1D201C" stroke="white" stroke-width="0.2"/>
<path d="M7.5 21C8.32843 21 9 20.3284 9 19.5C9 18.6716 8.32843 18 7.5 18C6.67157 18 6 18.6716 6 19.5C6 20.3284 6.67157 21 7.5 21Z" fill="#1D201C"/>
<path d="M17.5 21C18.3284 21 19 20.3284 19 19.5C19 18.6716 18.3284 18 17.5 18C16.6716 18 16 18.6716 16 19.5C16 20.3284 16.6716 21 17.5 21Z" fill="#1D201C"/>
</svg>
